<svg height="600" width="600" viewBox="0 0 14 14" xmlns="http://www.w3.org/2000/svg">
	<g>
		<line fill="none" stroke="#000000" strokeLinecap="round" strokeLinejoin="round" x1="1.24" x2="12.74" y1="6.54" y2="1.31"/>
		<polyline fill="none" points="10.59 0.5 12.74 1.31 11.94 3.46" stroke="#000000" strokeLinecap="round" strokeLinejoin="round"/>
		<path d="M10.75,6h2.5a0,0,0,0,1,0,0v7a.5.5,0,0,1-.5.5h-1.5a.5.5,0,0,1-.5-.5V6A0,0,0,0,1,10.75,6Z" fill="none" stroke="#000000" strokeLinecap="round" strokeLinejoin="round" transform="translate(24 19.51) rotate(-180)"/>
		<path d="M5.75,7.5h2.5a0,0,0,0,1,0,0V13a.5.5,0,0,1-.5.5H6.25a.5.5,0,0,1-.5-.5V7.5a0,0,0,0,1,0,0Z" fill="none" stroke="#000000" strokeLinecap="round" strokeLinejoin="round" transform="translate(14 21.01) rotate(-180)"/>
		<path d="M.75,9h2.5a0,0,0,0,1,0,0v4a.5.5,0,0,1-.5.5H1.25a.5.5,0,0,1-.5-.5V9A0,0,0,0,1,.75,9Z" fill="none" stroke="#000000" strokeLinecap="round" strokeLinejoin="round" transform="translate(4 22.51) rotate(-180)"/>
	</g>
</svg>